<svg xmlns="http://www.w3.org/2000/svg" viewBox="0 0 100 100" fill="none" shape-rendering="auto"><metadata xmlns:rdf="http://www.w3.org/1999/02/22-rdf-syntax-ns#" xmlns:xsi="http://www.w3.org/2001/XMLSchema-instance" xmlns:dc="http://purl.org/dc/elements/1.1/" xmlns:dcterms="http://purl.org/dc/terms/"><rdf:RDF><rdf:Description><dc:title>Shapes</dc:title><dc:creator>DiceBear</dc:creator><dc:source xsi:type="dcterms:URI">https://www.dicebear.com</dc:source><dcterms:license xsi:type="dcterms:URI">https://creativecommons.org/publicdomain/zero/1.0/</dcterms:license><dc:rights>Shapes (https://www.dicebear.com) by DiceBear, licensed under CC0 1.0 (https://creativecommons.org/publicdomain/zero/1.0/)</dc:rights></rdf:Description></rdf:RDF></metadata><mask id="viewboxMask"><rect width="100" height="100" rx="0" ry="0" x="0" y="0" fill="#fff" /></mask><g mask="url(#viewboxMask)"><rect fill="#fef3c7" width="100" height="100" x="0" y="0" /><g transform="matrix(1.2 0 0 1.2 -10 -10)"><g transform="translate(5, -5) rotate(-6 50 50)"><path d="m50 7 50 86.6H0L50 7Z" fill="#d97706"/></g></g><g transform="matrix(.8 0 0 .8 10 10)"><g transform="translate(30, 32) rotate(-123 50 50)"><path d="M100 50A50 50 0 1 1 0 50a50 50 0 0 1 100 0Z" fill="#14213d"/></g></g><g transform="matrix(.4 0 0 .4 30 30)"><g transform="translate(-18, 0) rotate(-132 50 50)"><path fill-rule="evenodd" clip-rule="evenodd" d="M50 90a40 40 0 1 0 0-80 40 40 0 0 0 0 80Zm0 10A50 50 0 1 0 50 0a50 50 0 0 0 0 100Z" fill="#334e68"/></g></g></g></svg>
